<svg xmlns="http://www.w3.org/2000/svg" enable-background="new 0 0 256 256" viewBox="0 0 256 256" id="adobe-photoshop-express"><path fill="#001e36" d="M50.5,12h155C229,12,248,31,248,54.5v147c0,23.5-19,42.5-42.5,42.5h-155C27,244,8,225,8,201.5v-147
					C8,31,27,12,50.5,12z"></path><path fill="#31a8ff" d="M81.2 162.9V90.1c0-.5.2-.8.7-.8 1.2 0 2.3 0 4-.1 1.7 0 3.5-.1 5.4-.1s4-.1 6.2-.1 4.3-.1 6.4-.1c5-.1 9.9.6 14.6 2.2 3.6 1.2 6.8 3.2 9.5 5.8 2.3 2.3 4.1 5 5.2 8 1.1 2.9 1.6 6 1.6 9.2 0 6.1-1.4 11.1-4.2 15.1s-6.8 7-11.4 8.6c-5.1 1.7-10.5 2.6-16 2.4-1.7 0-2.9 0-3.5-.1-.7 0-1.7-.1-3.1-.1v22.7c.1.5-.3 1-.8 1-.1 0-.2 0-.3 0H82C81.5 163.9 81.2 163.6 81.2 162.9zM96.6 103v23.8c1 .1 1.9.1 2.7.1h3.8c2.8 0 5.5-.4 8.2-1.3 2.3-.7 4.3-2 5.8-3.8 1.5-1.7 2.2-4.2 2.2-7.3.1-2.2-.5-4.4-1.7-6.3-1.2-1.8-2.9-3.2-5-4-2.7-1-5.5-1.5-8.3-1.4-1.8 0-3.4 0-4.8.1C98.1 102.8 97.2 102.9 96.6 103L96.6 103zM178.9 122.4c-2.1-1.1-4.4-1.9-6.8-2.4-2.6-.6-5.3-.9-7.9-.9-1.4 0-2.9.1-4.3.5-.9.2-1.7.7-2.2 1.4-.4.6-.6 1.3-.6 1.9 0 .7.3 1.3.7 1.8.7.8 1.5 1.4 2.4 1.9 1.6.9 3.3 1.7 5 2.3 3.8 1.3 7.5 3 10.9 5.2 2.3 1.5 4.2 3.5 5.6 5.9 1.1 2.3 1.7 4.8 1.7 7.3.1 3.3-.9 6.6-2.7 9.4-2 2.8-4.7 5-7.9 6.3-4.1 1.6-8.4 2.4-12.8 2.3-3.2 0-6.5-.3-9.6-.9-2.5-.5-4.9-1.2-7.2-2.3-.5-.3-.8-.8-.8-1.4v-12.3c0-.2.1-.5.3-.6s.5-.1.6.1c2.7 1.6 5.7 2.8 8.8 3.5 2.7.7 5.5 1 8.3 1.1 2 .1 4-.2 5.9-1 1.2-.5 1.9-1.7 1.9-3-.1-1.2-.7-2.2-1.7-2.9-2.2-1.4-4.5-2.5-7-3.3-3.6-1.2-7-3-10.1-5.1-2.2-1.6-4.1-3.6-5.4-6-1.1-2.2-1.7-4.7-1.7-7.2 0-3 .8-6 2.4-8.6 1.8-2.8 4.4-5.1 7.4-6.5 3.9-1.8 8.2-2.7 12.5-2.5 2.9 0 5.9.2 8.8.6 2.1.3 4.2.8 6.1 1.7.3.1.6.3.7.6.1.3.1.6.1.9v11.5c0 .3-.1.5-.3.7C179.6 122.6 179.2 122.6 178.9 122.4z"></path><g opacity=".6"><path fill="#31a8ff" d="M128,224.8c-3.9,0-7.6-1.5-10.3-4.3l-82.2-82.2c-5.7-5.7-5.7-14.9,0-20.6l0,0l82.2-82.2
						c5.7-5.7,14.9-5.7,20.6,0l0,0l82.2,82.2c5.7,5.7,5.7,14.9,0,20.6l0,0l-82.2,82.2C135.6,223.2,131.9,224.8,128,224.8z
						 M120.5,217.7c4.1,4.1,10.8,4.1,14.9,0l82.2-82.2c4.1-4.1,4.1-10.8,0-14.9l-82.2-82.2c-4.1-4.1-10.8-4.1-14.9,0l-82.2,82.2
						c-4.1,4.1-4.1,10.8,0,14.9L120.5,217.7z"></path></g></svg>