<svg width="42" height="42" viewBox="0 0 42 42" fill="none" xmlns="http://www.w3.org/2000/svg">
<path d="M34.0201 9.2927C33.9545 9.1352 33.8626 8.99082 33.7314 8.85957C33.6001 8.72832 33.4557 8.63645 33.2982 8.57082C33.1407 8.5052 32.9832 8.47895 32.7995 8.46582H24.9245C24.2026 8.46582 23.612 9.05645 23.612 9.77832C23.612 10.5002 24.2026 11.0908 24.9245 11.0908H29.6364L20.0682 20.6589C19.5564 21.1708 19.5564 21.9977 20.0682 22.5096C20.3307 22.7721 20.6589 22.8902 21.0001 22.8902C21.3414 22.8902 21.6695 22.7589 21.932 22.5096L31.5001 12.9414V17.6533C31.5001 18.3752 32.0907 18.9658 32.8126 18.9658C33.5345 18.9658 34.1251 18.3752 34.1251 17.6533V9.77832C34.1251 9.59457 34.0857 9.43707 34.0201 9.27957V9.2927Z" fill="black"/>
<path d="M32.8125 21.6035C32.0906 21.6035 31.5 22.1941 31.5 22.916V30.791C31.5 31.5129 30.9094 32.1035 30.1875 32.1035H11.8125C11.0906 32.1035 10.5 31.5129 10.5 30.791V12.416C10.5 11.6941 11.0906 11.1035 11.8125 11.1035H19.6875C20.4094 11.1035 21 10.5129 21 9.79102C21 9.06914 20.4094 8.47852 19.6875 8.47852H11.8125C9.64688 8.47852 7.875 10.2504 7.875 12.416V30.791C7.875 32.9566 9.64688 34.7285 11.8125 34.7285H30.1875C32.3531 34.7285 34.125 32.9566 34.125 30.791V22.916C34.125 22.1941 33.5344 21.6035 32.8125 21.6035Z" fill="black"/>
</svg>
